<svg xmlns="http://www.w3.org/2000/svg" width="115.67" height="115.67" viewBox="0 0 347 347"><defs><mask id="4o12b" width="2.03" height="2.03" x="-1.02" y="-1.02"><path fill="#fff" d="M27.5.5h292v292h-292z"/><path d="M120.487 5.026H226.57c30.76 0 41.916 3.687 53.161 10.61 11.247 6.924 20.072 17.085 26.086 30.03 6.015 12.946 9.218 25.787 9.218 61.199v79.262c0 35.412-3.203 48.253-9.218 61.199-6.014 12.946-14.84 23.106-26.086 30.03-11.245 6.924-22.4 10.61-53.161 10.61H120.487c-30.762 0-41.917-3.686-53.162-10.61-11.246-6.924-20.071-17.084-26.086-30.03-6.014-12.946-9.217-25.787-9.217-61.199v-79.262c0-35.412 3.203-48.253 9.217-61.198 6.015-12.946 14.84-23.107 26.086-30.03 11.245-6.924 22.4-10.611 53.162-10.611z"/></mask><filter id="4o12a" width="367" height="394" x="-10" y="-37" filterUnits="userSpaceOnUse"><feOffset dy="27" in="SourceGraphic" result="FeOffset1037Out"/><feGaussianBlur in="FeOffset1037Out" result="FeGaussianBlur1038Out" stdDeviation="11 11"/></filter></defs><g><g><g filter="url(#4o12a)"><path fill="none" stroke="#939393" stroke-opacity=".14" stroke-width="9" d="M120.487 5.026H226.57c30.76 0 41.916 3.687 53.161 10.61 11.247 6.924 20.072 17.085 26.086 30.03 6.015 12.946 9.218 25.787 9.218 61.199v79.262c0 35.412-3.203 48.253-9.218 61.199-6.014 12.946-14.84 23.106-26.086 30.03-11.245 6.924-22.4 10.61-53.161 10.61H120.487c-30.762 0-41.917-3.686-53.162-10.61-11.246-6.924-20.071-17.084-26.086-30.03-6.014-12.946-9.217-25.787-9.217-61.199v-79.262c0-35.412 3.203-48.253 9.217-61.198 6.015-12.946 14.84-23.107 26.086-30.03 11.245-6.924 22.4-10.611 53.162-10.611z" mask="url(&quot;#4o12b&quot;)"/><path fill="#939393" fill-opacity=".14" d="M120.487 5.026H226.57c30.76 0 41.916 3.687 53.161 10.61 11.247 6.924 20.072 17.085 26.086 30.03 6.015 12.946 9.218 25.787 9.218 61.199v79.262c0 35.412-3.203 48.253-9.218 61.199-6.014 12.946-14.84 23.106-26.086 30.03-11.245 6.924-22.4 10.61-53.161 10.61H120.487c-30.762 0-41.917-3.686-53.162-10.61-11.246-6.924-20.071-17.084-26.086-30.03-6.014-12.946-9.217-25.787-9.217-61.199v-79.262c0-35.412 3.203-48.253 9.217-61.198 6.015-12.946 14.84-23.107 26.086-30.03 11.245-6.924 22.4-10.611 53.162-10.611z"/></g><path fill="#fff" d="M120.487 5.026H226.57c30.76 0 41.916 3.687 53.161 10.61 11.247 6.924 20.072 17.085 26.086 30.03 6.015 12.946 9.218 25.787 9.218 61.199v79.262c0 35.412-3.203 48.253-9.218 61.199-6.014 12.946-14.84 23.106-26.086 30.03-11.245 6.924-22.4 10.61-53.161 10.61H120.487c-30.762 0-41.917-3.686-53.162-10.61-11.246-6.924-20.071-17.084-26.086-30.03-6.014-12.946-9.217-25.787-9.217-61.199v-79.262c0-35.412 3.203-48.253 9.217-61.198 6.015-12.946 14.84-23.107 26.086-30.03 11.245-6.924 22.4-10.611 53.162-10.611z"/><path fill="none" d="M120.487 5.026H226.57c30.76 0 41.916 3.687 53.161 10.61 11.247 6.924 20.072 17.085 26.086 30.03 6.015 12.946 9.218 25.787 9.218 61.199v79.262c0 35.412-3.203 48.253-9.218 61.199-6.014 12.946-14.84 23.106-26.086 30.03-11.245 6.924-22.4 10.61-53.161 10.61H120.487c-30.762 0-41.917-3.686-53.162-10.61-11.246-6.924-20.071-17.084-26.086-30.03-6.014-12.946-9.217-25.787-9.217-61.199v-79.262c0-35.412 3.203-48.253 9.217-61.198 6.015-12.946 14.84-23.107 26.086-30.03 11.245-6.924 22.4-10.611 53.162-10.611z"/></g><g><path fill="#ffca00" d="M84.932 179.206c-.952 6.948 6.074 13 13.02 13.262 6.948.261 13.371-3.652 18.735-8.114 5.363-4.462 10.246-9.672 16.436-12.862 13.388-6.9 31.63-1.747 39.52 11.164 7.843-12.88 25.993-18.07 39.367-11.256 6.225 3.172 11.141 8.383 16.529 12.85 5.387 4.47 11.828 8.394 18.797 8.143 6.97-.251 14.033-6.295 13.11-13.27 9.31 10.837 5.923 29.066-4.903 38.359-10.827 9.292-26.707 10.655-40.397 6.797-13.691-3.857-25.649-12.23-36.991-20.873-2.016-1.536-4.405-3.176-6.86-2.575-1.206.295-2.215 1.099-3.187 1.876-13.437 10.744-28.365 20.786-45.36 23.068-23.173 3.112-60.546-20.994-37.816-46.57z"/></g><g><path d="M118.527 86.166c13.837-.654 28.64 2.533 43.09 7.609 8.583 3.014 17.043 3.105 25.58-.027 18.314-6.719 37.229-8.933 56.578-7.144 10.287.951 20.53 2.39 30.79 3.64 2.307.28 3.01.992 3.228 3.33.303 3.25.582 6.508.658 9.768.017.745-.654 1.858-1.317 2.207-3.122 1.642-4.625 4.168-5.033 7.637-.499 4.236-1.1 8.469-1.9 12.656-1.365 7.152-3.435 14.066-7.542 20.203-4.271 6.382-10.498 9.76-17.648 11.694-11.185 3.025-22.358 2.77-33.407-.593-8.248-2.51-14.52-7.73-19.061-15.082-3.815-6.172-6.824-12.73-9.35-19.534-.946-2.553-1.9-5.147-3.24-7.5-1.779-3.126-6.028-3.863-9.098-1.9-1.883 1.202-3.01 2.99-3.772 5.024-.94 2.51-1.679 5.102-2.705 7.572-3.059 7.363-6.285 14.654-11.396 20.874-5.274 6.418-12.182 10.127-20.18 11.772-7.494 1.54-15.078 2.037-22.666.725-7.965-1.377-15.68-3.505-21.37-9.832-4.756-5.287-7.637-11.574-8.861-18.597-1.118-6.423-2.045-12.88-3.267-19.282-.484-2.533-2.276-4.389-4.58-5.5-1.48-.715-1.865-1.7-1.718-3.236.294-3.08.417-6.178.704-9.26.195-2.08.875-2.846 2.882-3.093 14.302-1.76 28.522-4.38 44.601-4.131zm-27.979 25.839c2.774 2.275 8.367-1.249 15.308-2.867 9.911-2.31 14.812-1.82 23.323.068 2.565.57 2.68-1.31.94-2.827-7.685-6.703-24.654-7.111-34.117-3.644-7.922 2.902-7.844 7.308-5.454 9.27zm159.168-9.27c-9.462-3.467-26.431-3.059-34.118 3.644-1.739 1.517-1.624 3.396.941 2.827 8.511-1.887 13.413-2.378 23.324-.068 6.941 1.618 12.534 5.142 15.308 2.867 2.389-1.962 2.468-6.368-5.455-9.27z"/></g></g></svg>