<svg width="190" height="81" viewBox="0 0 190 81" fill="none" xmlns="http://www.w3.org/2000/svg">
<g clip-path="url(#clip0)">
<g filter="url(#filter0_f)">
<path d="M24.6391 4.00033H159.127C166.304 4.00033 168.906 4.86063 171.53 6.47656C174.153 8.09216 176.213 10.4631 177.616 13.4843C179.019 16.5055 179.766 19.502 179.766 27.766V46.2629C179.766 54.5266 179.019 57.5235 177.616 60.5443C176.213 63.5659 174.153 65.9364 171.53 67.5524C168.906 69.168 166.304 70.0286 159.127 70.0286H24.6391C17.4624 70.0286 14.8599 69.168 12.2363 67.5524C9.61277 65.9364 7.55352 63.5659 6.15058 60.5443C4.7473 57.5235 4 54.5266 4 46.2629V27.766C4 19.502 4.7473 16.5055 6.15058 13.4843C7.55352 10.4634 9.6131 8.09216 12.2363 6.47656C14.8599 4.86063 17.4624 4 24.6391 4V4.00033Z" fill="black" fill-opacity="0.6"/>
</g>
<path d="M24.6391 4.00037H159.127C166.304 4.00037 168.906 4.86066 171.53 6.4766C174.153 8.0922 176.213 10.4631 177.616 13.4843C179.019 16.5055 179.766 19.5021 179.766 27.7661V46.263C179.766 54.5266 179.019 57.5235 177.616 60.5444C176.213 63.5659 174.153 65.9365 171.53 67.5524C168.906 69.168 166.304 70.0286 159.127 70.0286H24.6391C17.4624 70.0286 14.8599 69.168 12.2363 67.5524C9.61277 65.9365 7.55352 63.5659 6.15058 60.5444C4.7473 57.5235 4 54.5266 4 46.263V27.7661C4 19.5021 4.7473 16.5055 6.15058 13.4843C7.55352 10.4634 9.6131 8.0922 12.2363 6.4766C14.8599 4.86066 17.4624 4.00037 24.6391 4.00037Z" fill="#FBCE33"/>
</g>
<defs>
<filter id="filter0_f" x="-1.59977" y="-1.59977" width="186.965" height="77.2281" filterUnits="userSpaceOnUse" color-interpolation-filters="sRGB">
<feFlood flood-opacity="0" result="BackgroundImageFix"/>
<feBlend mode="normal" in="SourceGraphic" in2="BackgroundImageFix" result="shape"/>
<feGaussianBlur stdDeviation="2.79988" result="effect1_foregroundBlur"/>
</filter>
<clipPath id="clip0">
<rect width="190" height="80.33" fill="white"/>
</clipPath>
</defs>
</svg>
