<svg xmlns="http://www.w3.org/2000/svg" width="14.33" height="25.67" viewBox="0 0 43 77"><g><g><path fill="#fff" d="M41.492 41.799L9.26 74.51a5.193 5.193 0 0 1-7.424 0c-2.049-2.08-2.049-5.454 0-7.534l28.52-28.945L1.837 9.088c-2.049-2.08-2.049-5.454 0-7.534a5.195 5.195 0 0 1 7.424 0l32.232 32.712a5.351 5.351 0 0 1 1.536 3.766 5.352 5.352 0 0 1-1.537 3.767z"/><path fill="none" d="M41.492 41.799L9.26 74.51a5.193 5.193 0 0 1-7.424 0c-2.049-2.08-2.049-5.454 0-7.534l28.52-28.945L1.837 9.088c-2.049-2.08-2.049-5.454 0-7.534a5.195 5.195 0 0 1 7.424 0l32.232 32.712a5.351 5.351 0 0 1 1.536 3.766 5.352 5.352 0 0 1-1.537 3.767z"/></g></g></svg>