<svg xmlns="http://www.w3.org/2000/svg" width="10.67" height="18.33" viewBox="0 0 32 55"><g><g><path fill="#c9c9c9" d="M2.002 30.114L24.728 52.98a3.684 3.684 0 0 0 5.235 0 3.741 3.741 0 0 0 0-5.266L9.853 27.48 29.963 7.248a3.742 3.742 0 0 0 0-5.267 3.684 3.684 0 0 0-5.234 0L2 24.848a3.725 3.725 0 0 0-1.083 2.633c0 .953.362 1.906 1.084 2.633z"/><path fill="none" d="M2.002 30.114L24.728 52.98a3.684 3.684 0 0 0 5.235 0 3.741 3.741 0 0 0 0-5.266L9.853 27.48 29.963 7.248a3.742 3.742 0 0 0 0-5.267 3.684 3.684 0 0 0-5.234 0L2 24.848a3.725 3.725 0 0 0-1.083 2.633c0 .953.362 1.906 1.084 2.633z"/></g></g></svg>