<svg xmlns="http://www.w3.org/2000/svg" width="20" height="14.33" viewBox="0 0 60 43"><g><g><path fill="#fff" d="M58.236 10.092L26.584 41.254c-2.344 2.308-6.146 2.308-8.491 0L1.753 25.166a5.848 5.848 0 0 1 0-8.361c2.346-2.31 6.148-2.31 8.492-.001l12.094 11.909L49.743 1.73c2.346-2.31 6.148-2.308 8.492 0a5.85 5.85 0 0 1 .001 8.36z"/><path fill="none" d="M58.236 10.092L26.584 41.254c-2.344 2.308-6.146 2.308-8.491 0L1.753 25.166a5.848 5.848 0 0 1 0-8.361c2.346-2.31 6.148-2.31 8.492-.001l12.094 11.909L49.743 1.73c2.346-2.31 6.148-2.308 8.492 0a5.85 5.85 0 0 1 .001 8.36z"/></g></g></svg>