<?xml version="1.0" encoding="utf-8"?>
<!-- Generator: Adobe Illustrator 25.0.0, SVG Export Plug-In . SVG Version: 6.00 Build 0)  -->
<svg version="1.1" id="Layer_1" xmlns="http://www.w3.org/2000/svg" xmlns:xlink="http://www.w3.org/1999/xlink" x="0px" y="0px"
	 viewBox="0 0 106 107" style="enable-background:new 0 0 106 107;" xml:space="preserve">
<style type="text/css">
	.st0{fill-rule:evenodd;clip-rule:evenodd;fill:url(#Shape_347_1_copy_9_2_);}
	.st1{fill:none;}
	.st2{fill-rule:evenodd;clip-rule:evenodd;fill:#FFFFFF;}
</style>
<g>
	<linearGradient id="Shape_347_1_copy_9_2_" gradientUnits="userSpaceOnUse" x1="0.176" y1="53.475" x2="105.055" y2="53.475">
		<stop  offset="0" style="stop-color:#FFD600"/>
		<stop  offset="0.5" style="stop-color:#FF0100"/>
		<stop  offset="1" style="stop-color:#D800B9"/>
	</linearGradient>
	<path id="Shape_347_1_copy_9" class="st0" d="M28.1,0.9h49c9.7,0,13.2,1.2,16.8,3.4c3.6,2.3,6.5,5.6,8.2,9.5
		c1.9,4.1,2.9,8.2,2.9,19.4v40.7c0,11.2-1,15.3-2.9,19.4c-1.7,3.9-4.6,7.2-8.2,9.5c-3.6,2.2-7.1,3.4-16.8,3.4h-49
		c-9.7,0-13.2-1.2-16.8-3.4c-3.6-2.3-6.5-5.6-8.2-9.5C1.2,89.1,0.2,85,0.2,73.8V33.1c0-11.2,1-15.3,2.9-19.4
		c1.7-3.9,4.6-7.2,8.2-9.5C14.9,2,18.4,0.9,28.1,0.9z"/>
</g>
<g>
	<path id="Shape_347_1_copy_9_1_" class="st1" d="M28.1,0.9h49c9.7,0,13.2,1.2,16.8,3.4c3.6,2.3,6.5,5.6,8.2,9.5
		c1.9,4.1,2.9,8.2,2.9,19.4v40.7c0,11.2-1,15.3-2.9,19.4c-1.7,3.9-4.6,7.2-8.2,9.5c-3.6,2.2-7.1,3.4-16.8,3.4h-49
		c-9.7,0-13.2-1.2-16.8-3.4c-3.6-2.3-6.5-5.6-8.2-9.5C1.2,89.1,0.2,85,0.2,73.8V33.1c0-11.2,1-15.3,2.9-19.4
		c1.7-3.9,4.6-7.2,8.2-9.5C14.9,2,18.4,0.9,28.1,0.9z"/>
</g>
<path id="Shape_2425_copy" class="st2" d="M89.9,35.9c-0.1-3.1-0.7-6.2-1.7-9.1c-1.9-5.1-5.9-9.1-11-11c-2.9-1.1-6-1.7-9.1-1.8
	c-4-0.2-5.3-0.2-15.5-0.2s-11.5,0-15.5,0.2c-3.1,0.1-6.2,0.7-9.1,1.8c-2.5,0.9-4.8,2.4-6.7,4.4c-1.9,1.9-3.4,4.2-4.3,6.7
	c-1.1,2.9-1.7,6-1.7,9.1c-0.2,4-0.2,5.3-0.2,15.5s0,11.5,0.2,15.5c0.1,3.1,0.7,6.2,1.7,9.1c1.9,5.1,5.9,9.1,11,11
	c2.9,1.1,6,1.7,9.1,1.8c4,0.2,5.3,0.2,15.5,0.2s11.5,0,15.5-0.2c3.1-0.1,6.2-0.7,9.1-1.8c5-2,9-6,11-11c1.1-2.9,1.7-6,1.7-9.1
	c0.2-4,0.2-5.3,0.2-15.5S90.1,39.9,89.9,35.9z M83.2,66.6c0,2.4-0.5,4.7-1.3,7c-1.3,3.3-3.8,5.9-7.1,7.1c-2.2,0.8-4.6,1.3-7,1.3
	c-4,0.2-5.1,0.2-15.2,0.2s-11.2,0-15.2-0.2c-2.4,0-4.7-0.5-7-1.3c-1.6-0.6-3.1-1.6-4.3-2.8c-1.2-1.2-2.2-2.7-2.8-4.3
	c-0.8-2.2-1.3-4.6-1.3-7c-0.2-4-0.2-5.2-0.2-15.2s0-11.3,0.2-15.2c0-2.4,0.5-4.7,1.3-7c0.6-1.6,1.6-3.1,2.8-4.3
	c1.2-1.2,2.7-2.2,4.3-2.8c2.2-0.8,4.6-1.3,7-1.3c4-0.2,5.1-0.2,15.2-0.2c10,0,11.2,0,15.2,0.2c2.4,0,4.7,0.5,7,1.3
	c1.6,0.6,3.1,1.6,4.3,2.8c1.2,1.2,2.2,2.7,2.8,4.3c0.8,2.2,1.3,4.6,1.3,7c0.2,4,0.2,5.2,0.2,15.2S83.4,62.6,83.2,66.6z M52.6,32
	C42,32,33.3,40.6,33.2,51.3c0,10.7,8.6,19.4,19.3,19.4s19.4-8.6,19.4-19.3c0,0,0,0,0-0.1C71.9,40.7,63.3,32,52.6,32z M52.6,63.9
	c-6.9,0-12.6-5.6-12.6-12.5s5.6-12.6,12.5-12.6s12.6,5.6,12.6,12.5c0,0,0,0,0,0C65.1,58.3,59.6,63.9,52.6,63.9L52.6,63.9z
	 M77.2,31.3c0,2.5-2,4.5-4.5,4.5c-2.5,0-4.5-2-4.5-4.5c0-2.5,2-4.5,4.5-4.5C75.2,26.8,77.2,28.8,77.2,31.3
	C77.2,31.3,77.2,31.3,77.2,31.3z"/>
</svg>
