<?xml version="1.0" encoding="utf-8"?>
		<!-- Generator: Adobe Illustrator 25.0.0, SVG Export Plug-In . SVG Version: 6.00 Build 0)  -->
<svg version="1.1" id="Layer_1" xmlns="http://www.w3.org/2000/svg" xmlns:xlink="http://www.w3.org/1999/xlink" x="0px" y="0px"
	 viewBox="0 0 284 283" style="enable-background:new 0 0 284 283;" xml:space="preserve">

<path id="Shape_2_copy" fill="#FFCA00" d="M52.9,174.2c-1,6.9,6.1,13,13,13.3s13.4-3.7,18.7-8.1s10.2-9.7,16.4-12.9
	c13.4-6.9,31.6-1.7,39.5,11.2c7.8-12.9,26-18.1,39.4-11.3c6.2,3.2,11.1,8.4,16.5,12.9s11.8,8.4,18.8,8.1s14-6.3,13.1-13.3
	c9.3,10.8,5.9,29.1-4.9,38.4s-26.7,10.7-40.4,6.8s-25.6-12.2-37-20.9c-2-1.5-4.4-3.2-6.9-2.6c-1.2,0.4-2.3,1-3.2,1.9
	c-13.4,10.7-28.4,20.8-45.4,23.1C67.6,223.9,30.2,199.8,52.9,174.2z"/>
<path id="Shape_1_copy" fill="#000000" d="M86.5,81.2c13.8-0.7,28.6,2.5,43.1,7.6c8.3,3.1,17.3,3.1,25.6,0c18.1-6.6,37.4-9,56.6-7.1
	c10.3,1,20.5,2.4,30.8,3.6c2.3,0.3,3,1,3.2,3.3c0.3,3.2,0.6,6.5,0.7,9.8c-0.1,0.9-0.6,1.7-1.3,2.2c-2.9,1.5-4.8,4.4-5,7.6
	c-0.5,4.2-1.1,8.5-1.9,12.7c-1.4,7.2-3.4,14.1-7.5,20.2c-4.3,6.4-10.5,9.8-17.6,11.7c-11,3-22.6,2.8-33.4-0.6
	c-8-2.5-14.8-7.8-19.1-15.1c-3.8-6.2-6.9-12.7-9.4-19.5c-0.9-2.6-2-5.1-3.2-7.5c-1.8-3.1-6-3.9-9.1-1.9c-1.8,1.2-3.1,3-3.8,5
	c-0.9,2.5-1.7,5.1-2.7,7.6c-3.1,7.4-6.3,14.7-11.4,20.9c-5.1,6.2-12.3,10.3-20.2,11.8c-7.4,1.7-15.1,1.9-22.7,0.7
	c-8-1.4-15.7-3.5-21.4-9.8c-4.7-5.2-7.7-11.7-8.9-18.6c-1.1-6.4-2-12.9-3.3-19.3c-0.5-2.5-2.3-4.5-4.6-5.5c-1.3-0.5-2-1.9-1.7-3.2
	c0.3-3.1,0.4-6.2,0.7-9.3c0.2-2.1,0.9-2.8,2.9-3.1C56.2,83.5,70.4,80.9,86.5,81.2z M58.5,107c-2.4-2-2.5-6.4,5.5-9.3
	c9.5-3.5,26.4-3.1,34.1,3.6c1.7,1.5,1.6,3.4-0.9,2.8c-8.5-1.9-13.4-2.4-23.3-0.1C66.9,105.8,61.3,109.3,58.5,107
	C58.5,107,58.5,107,58.5,107z M223.2,107c2.4-2,2.5-6.4-5.5-9.3c-9.5-3.5-26.4-3.1-34.1,3.6c-1.7,1.5-1.6,3.4,0.9,2.8
	c8.5-1.9,13.4-2.4,23.3-0.1C214.8,105.8,220.4,109.3,223.2,107L223.2,107z"/>
</svg>

