<svg xmlns="http://www.w3.org/2000/svg" width="24" height="24" viewBox="0 0 72 72"><g><g opacity=".2"><path d="M22.79.007h26.674c7.734 0 10.54.926 13.367 2.667 2.827 1.741 5.047 4.296 6.558 7.551 1.513 3.255 2.318 6.484 2.318 15.387v19.93c0 8.904-.805 12.132-2.318 15.387-1.511 3.255-3.731 5.81-6.558 7.55-2.828 1.741-5.633 2.669-13.367 2.669H22.791c-7.735 0-10.54-.928-13.366-2.668-2.828-1.741-5.048-4.296-6.56-7.55C1.354 57.673.549 54.445.549 45.541v-19.93c0-8.903.805-12.132 2.318-15.387 1.511-3.255 3.731-5.81 6.559-7.55C12.252.932 15.056.006 22.79.006z"/><path fill="none" d="M22.79.007h26.674c7.734 0 10.54.926 13.367 2.667 2.827 1.741 5.047 4.296 6.558 7.551 1.513 3.255 2.318 6.484 2.318 15.387v19.93c0 8.904-.805 12.132-2.318 15.387-1.511 3.255-3.731 5.81-6.558 7.55-2.828 1.741-5.633 2.669-13.367 2.669H22.791c-7.735 0-10.54-.928-13.366-2.668-2.828-1.741-5.048-4.296-6.56-7.55C1.354 57.673.549 54.445.549 45.541v-19.93c0-8.903.805-12.132 2.318-15.387 1.511-3.255 3.731-5.81 6.559-7.55C12.252.932 15.056.006 22.79.006z"/></g><g><path fill="#fff" d="M58.348 28.24L33.432 53.025a4.746 4.746 0 0 1-6.685 0L13.884 40.23a4.687 4.687 0 0 1 0-6.65 4.745 4.745 0 0 1 6.685 0l9.52 9.472 21.574-21.462a4.745 4.745 0 0 1 6.685 0 4.687 4.687 0 0 1 0 6.65z"/><path fill="none" d="M58.348 28.24L33.432 53.025a4.746 4.746 0 0 1-6.685 0L13.884 40.23a4.687 4.687 0 0 1 0-6.65 4.745 4.745 0 0 1 6.685 0l9.52 9.472 21.574-21.462a4.745 4.745 0 0 1 6.685 0 4.687 4.687 0 0 1 0 6.65z"/></g></g></svg>