<svg xmlns="http://www.w3.org/2000/svg" width="21.67" height="22" viewBox="0 0 65 66"><g><g><path fill="#b7b7b7" d="M62.18 54.992a6.024 6.024 0 0 1 0 8.743 6.045 6.045 0 0 1-8.538-.217l-9.99-9.85a28.887 28.887 0 0 1-31.348-1.295C-.704 43.177-3.782 25.195 5.426 12.207 14.634-.783 32.644-3.858 45.649 5.338c13.007 9.196 16.087 27.18 6.876 40.169zm-33.209-7.517c10.282-.017 18.604-8.352 18.586-18.617-.02-10.25-8.348-18.552-18.612-18.547-10.28.004-18.607 8.325-18.604 18.589.007 10.263 8.34 18.578 18.617 18.575h.013z"/></g></g></svg>