<svg xmlns="http://www.w3.org/2000/svg" width="73.33" height="45.33" viewBox="0 0 220 136"><g><g><path fill="#e1e1e1" d="M65.794 58.962c0-5.025 4.086-9.113 9.108-9.113s9.107 4.088 9.107 9.113c0 5.025-4.085 9.113-9.107 9.113-5.022 0-9.108-4.088-9.108-9.113zM83.17 9.874c0-5.025 4.085-9.112 9.107-9.112 5.022 0 9.108 4.087 9.108 9.112 0 5.024-4.086 9.112-9.108 9.112s-9.107-4.088-9.107-9.112zM66.792 37.857c.456-1.614.973-3.444.973-5.301 0-1.858-.517-3.687-.973-5.302-.658-2.33-1.34-4.739.159-6.721.622-.822 1.834-1.802 4.082-1.802 5.844 0 10.42 6.073 10.42 13.825 0 7.751-4.576 13.823-10.42 13.823-2.248 0-3.46-.979-4.082-1.8-1.499-1.983-.817-4.393-.159-6.722zM59.244 75.32c-.458 1.614-.975 3.444-.975 5.301 0 1.857.517 3.687.975 5.301.658 2.33 1.339 4.739-.16 6.722-.62.821-1.833 1.801-4.081 1.801-5.844 0-10.422-6.072-10.422-13.824s4.578-13.824 10.422-13.824c2.248 0 3.46.979 4.081 1.801 1.499 1.982.818 4.392.16 6.722zM27.237 56.69c-5.43-5.434-5.43-14.274 0-19.706a13.831 13.831 0 0 1 9.848-4.081c3.72 0 7.216 1.448 9.846 4.08a13.846 13.846 0 0 1 4.08 9.854c0 3.72-1.45 7.22-4.08 9.851a13.828 13.828 0 0 1-9.846 4.082c-3.72 0-7.217-1.45-9.848-4.08zm77.306-6.403c3.72 0 7.216 1.45 9.847 4.081 5.43 5.433 5.43 14.274 0 19.706a13.831 13.831 0 0 1-9.847 4.081c-3.72 0-7.216-1.449-9.847-4.081a13.842 13.842 0 0 1-4.08-9.852c0-3.723 1.449-7.221 4.08-9.854a13.83 13.83 0 0 1 9.847-4.08zm114.605 20.427l-.852 12.626a3.194 3.194 0 0 1-2.703 2.944l-51.275 7.853a3.193 3.193 0 0 1-3.53-2.203l-.015-.043-19.027 4.492c.505 3.662.625 11.3-5.072 18.945-9.846 13.212-31.82 19.91-65.314 19.91-33.494 0-55.469-6.698-65.314-19.91-7.004-9.399-4.994-18.487-4.735-20.773.602-6.674 13.01-11.376 36.884-13.988l-.002.054c0 2.205.287 4.312.806 6.284-22.955 2.504-30.266 6.669-31.267 8.17 2.121 3.608 24.591 9.798 63.628 9.798 39.046 0 61.518-6.194 63.63-9.8-1.24-1.962-11.061-6.336-35.268-8.57.097-.708.164-1.423.164-2.149 0-1.514-.226-2.975-.623-4.363 15.443 1.418 33.913 4.454 39.977 10.417l19.616-4.632-.454-1.45a3.196 3.196 0 0 1 2.314-4.066l54.512-12.872a3.193 3.193 0 0 1 3.92 3.326zM84.001 74.853c5.236 0 9.496 4.263 9.496 9.501a9.517 9.517 0 0 1-4.11 7.82c-.34 4.932-4.46 8.841-9.474 8.841s-9.134-3.909-9.474-8.841a9.517 9.517 0 0 1-4.11-7.82c0-5.238 4.26-9.501 9.496-9.501 1.423 0 2.82.322 4.088.929a9.48 9.48 0 0 1 4.088-.93zM36.417 26.127c-3.278-4.085-2.622-10.05 1.461-13.33a9.503 9.503 0 0 1 3.769-1.836 9.486 9.486 0 0 1 8.548-5.384 9.447 9.447 0 0 1 7.41 3.547 9.492 9.492 0 0 1 1.685 8.66 9.483 9.483 0 0 1-1.856 12.8c-1.68 1.35-3.79 2.038-5.94 2.038-2.676 0-5.184-1.05-6.978-2.998-3.106.22-6.144-1.06-8.099-3.497zM103.86 37.5a3.196 3.196 0 0 1-4.027 4.961 10.324 10.324 0 0 0-2.187-1.367l-.962 8.707a3.194 3.194 0 1 1-6.35-.703l.945-8.545c-1.008.266-1.637.599-1.655.608a3.195 3.195 0 0 1-3.102-5.588c.363-.201 8.987-4.863 17.338 1.927zM15.106 66.57a3.196 3.196 0 0 1 2.85-3.509 3.2 3.2 0 0 1 3.505 2.85c.097.94.307 1.767.58 2.514l6.833-5.475a3.192 3.192 0 0 1 4.49.496 3.197 3.197 0 0 1-.497 4.492l-6.707 5.374c.902.525 1.581.735 1.6.74a3.195 3.195 0 0 1-1.755 6.146c-.4-.114-9.791-2.92-10.899-13.629z"/></g></g></svg>