<?xml version="1.0" encoding="utf-8"?>
<!-- Generator: Adobe Illustrator 25.0.0, SVG Export Plug-In . SVG Version: 6.00 Build 0)  -->
<svg version="1.1" id="Layer_1" xmlns="http://www.w3.org/2000/svg" xmlns:xlink="http://www.w3.org/1999/xlink" x="0px" y="0px"
	 viewBox="0 0 144 144" style="enable-background:new 0 0 144 144;" xml:space="preserve">
<style type="text/css">
	.st0{fill-rule:evenodd;clip-rule:evenodd;fill:#E1E1E1;}
	.st1{fill-rule:evenodd;clip-rule:evenodd;fill:#FFFFFF;}
</style>
<path id="Shape_442_1" class="st0" d="M45.1,0.1H99c15.6,0,21.3,1.9,27,5.4c5.8,3.7,10.4,9,13.2,15.3c3.1,6.6,4.7,13.1,4.7,31.1
	v40.3c0,18-1.6,24.5-4.7,31.1c-2.8,6.3-7.4,11.6-13.2,15.3c-5.7,3.5-11.4,5.4-27,5.4H45.1c-15.6,0-21.3-1.9-27-5.4
	c-5.8-3.7-10.4-9-13.2-15.3c-3.1-6.6-4.7-13.1-4.7-31.1V51.9c0-18,1.6-24.5,4.7-31.1c2.8-6.3,7.4-11.6,13.2-15.3
	C23.8,2,29.4,0.1,45.1,0.1z"/>
<path id="_" class="st1" d="M78.9,101V76.8H102V64.9H78.9v-24H65.5v24H42v11.9h23.6V101H78.9z"/>
</svg>
