<svg xmlns="http://www.w3.org/2000/svg" width="46.67" height="31.33" viewBox="0 0 140 94"><g><g><path fill="#ffca00" d="M10.556 62.309c-.636 4.644 4.06 8.69 8.703 8.865 4.642.175 8.935-2.441 12.52-5.424 3.584-2.983 6.847-6.465 10.985-8.598 8.947-4.613 21.14-1.168 26.412 7.463 5.241-8.61 17.371-12.08 26.31-7.524 4.16 2.12 7.446 5.603 11.047 8.59 3.6 2.987 7.904 5.611 12.562 5.444 4.658-.168 9.378-4.209 8.762-8.871 6.222 7.243 3.958 19.43-3.277 25.642-7.236 6.212-17.85 7.123-26.999 4.544-9.15-2.578-17.141-8.175-24.721-13.953-1.348-1.028-2.944-2.123-4.585-1.722-.806.198-1.48.735-2.13 1.254-8.98 7.183-18.957 13.896-30.316 15.421C20.342 95.521-4.635 79.405 10.556 62.31z"/></g><g><path d="M33.009.11c9.247-.436 19.14 1.694 28.798 5.087 5.736 2.016 11.39 2.076 17.095-.018C91.142.688 103.783-.792 116.714.404c6.876.636 13.722 1.597 20.579 2.432 1.541.188 2.012.664 2.157 2.227.203 2.173.389 4.351.44 6.53.011.498-.437 1.242-.88 1.475-2.087 1.098-3.091 2.787-3.364 5.106-.333 2.831-.736 5.661-1.27 8.46-.912 4.782-2.295 9.404-5.04 13.506-2.855 4.267-7.017 6.524-11.796 7.818-7.475 2.022-14.941 1.851-22.326-.397-5.513-1.677-9.704-5.167-12.74-10.082-2.548-4.126-4.56-8.51-6.247-13.058-.633-1.708-1.27-3.442-2.166-5.014-1.19-2.09-4.03-2.583-6.08-1.271-1.259.804-2.013 2-2.52 3.36-.629 1.677-1.123 3.41-1.81 5.061-2.044 4.922-4.2 9.796-7.616 13.954-3.524 4.29-8.14 6.77-13.485 7.87-5.01 1.03-10.079 1.362-15.15.485-5.323-.92-10.478-2.344-14.282-6.573-3.177-3.534-5.104-7.737-5.921-12.432-.747-4.294-1.367-8.61-2.184-12.89-.323-1.693-1.52-2.934-3.06-3.678-.99-.477-1.247-1.136-1.149-2.163.197-2.06.278-4.13.47-6.19.13-1.39.585-1.902 1.927-2.067C12.759 1.696 22.263-.055 33.009.11zm-18.7 17.274c1.854 1.522 5.592-.834 10.232-1.916 6.623-1.545 9.898-1.216 15.586.045 1.715.381 1.792-.876.63-1.89-5.137-4.48-16.478-4.753-22.802-2.436-5.295 1.94-5.243 4.886-3.645 6.197zm106.376-6.197c-6.324-2.317-17.664-2.044-22.8 2.436-1.164 1.015-1.087 2.271.627 1.89 5.688-1.26 8.964-1.59 15.588-.045 4.64 1.082 8.377 3.438 10.23 1.916 1.597-1.311 1.65-4.256-3.645-6.197z"/></g></g></svg>