<svg xmlns="http://www.w3.org/2000/svg" width="46.67" height="31.33" viewBox="0 0 140 94"><g><g><path fill="#e1e1e1" d="M10.557 62.309c-.637 4.644 4.058 8.69 8.702 8.865 4.642.175 8.934-2.441 12.52-5.424 3.584-2.983 6.848-6.465 10.985-8.598 8.947-4.613 21.14-1.168 26.412 7.463 5.24-8.61 17.37-12.08 26.31-7.524 4.16 2.12 7.445 5.603 11.047 8.59 3.6 2.987 7.904 5.611 12.562 5.444 4.658-.168 9.378-4.209 8.761-8.871 6.223 7.243 3.96 19.43-3.277 25.642-7.235 6.212-17.848 7.123-26.998 4.544-9.15-2.578-17.142-8.175-24.722-13.953-1.347-1.028-2.944-2.123-4.585-1.722-.805.198-1.48.735-2.129 1.254-8.98 7.183-18.957 13.896-30.316 15.421C20.342 95.521-4.634 79.405 10.557 62.31z"/></g><g><path fill="#e1e1e1" d="M33.008.11c9.248-.436 19.141 1.694 28.799 5.087 5.735 2.016 11.39 2.076 17.094-.018C91.142.688 103.783-.792 116.715.404c6.874.636 13.72 1.597 20.578 2.432 1.541.188 2.012.664 2.157 2.227.203 2.173.388 4.351.44 6.53.01.498-.437 1.242-.88 1.475-2.087 1.098-3.092 2.787-3.365 5.106-.333 2.831-.734 5.661-1.27 8.46-.912 4.782-2.295 9.404-5.04 13.506-2.854 4.267-7.016 6.524-11.795 7.818-7.474 2.022-14.942 1.851-22.326-.397-5.513-1.677-9.703-5.167-12.739-10.082-2.55-4.126-4.56-8.51-6.248-13.058-.633-1.708-1.271-3.442-2.165-5.014-1.19-2.09-4.03-2.583-6.082-1.271-1.258.804-2.012 2-2.52 3.36-.628 1.677-1.122 3.41-1.809 5.061-2.043 4.922-4.2 9.796-7.616 13.954-3.524 4.29-8.141 6.77-13.486 7.87-5.008 1.03-10.077 1.362-15.15.485-5.322-.92-10.477-2.344-14.281-6.573-3.178-3.534-5.103-7.737-5.92-12.432-.749-4.294-1.369-8.61-2.185-12.89-.324-1.693-1.52-2.934-3.06-3.678-.99-.477-1.247-1.136-1.148-2.163.196-2.06.278-4.13.47-6.19.13-1.39.584-1.902 1.926-2.067C12.759 1.696 22.262-.055 33.008.11zM14.31 17.385c1.853 1.522 5.59-.834 10.23-1.916 6.624-1.545 9.9-1.216 15.588.045 1.714.381 1.79-.876.628-1.89-5.137-4.48-16.477-4.753-22.801-2.436-5.295 1.94-5.242 4.886-3.645 6.197zm106.375-6.197c-6.324-2.317-17.665-2.044-22.801 2.436-1.163 1.015-1.085 2.271.629 1.89 5.688-1.26 8.963-1.59 15.587-.045 4.64 1.082 8.377 3.438 10.231 1.916 1.597-1.311 1.65-4.256-3.646-6.197z"/></g></g></svg>