<svg xmlns="http://www.w3.org/2000/svg" width="25.33" height="25.33" viewBox="0 0 76 76"><g><g><path fill="#fff" d="M38-.035C59.006-.035 76.035 16.994 76.035 38c0 21.006-17.029 38.035-38.035 38.035C16.994 76.035-.035 59.006-.035 38-.035 16.994 16.994-.035 38-.035z"/><path fill="none" d="M38-.035C59.006-.035 76.035 16.994 76.035 38c0 21.006-17.029 38.035-38.035 38.035C16.994 76.035-.035 59.006-.035 38-.035 16.994 16.994-.035 38-.035z"/></g><g><path fill="#e6e6e6" d="M40.14 52.156L58.737 34.03a2.899 2.899 0 0 0 0-4.175 3.085 3.085 0 0 0-4.283 0L37.999 45.894 21.544 29.856a3.085 3.085 0 0 0-4.282 0 2.899 2.899 0 0 0 0 4.175l18.596 18.125a3.058 3.058 0 0 0 2.14.864 3.06 3.06 0 0 0 2.142-.864z"/><path fill="none" d="M40.14 52.156L58.737 34.03a2.899 2.899 0 0 0 0-4.175 3.085 3.085 0 0 0-4.283 0L37.999 45.894 21.544 29.856a3.085 3.085 0 0 0-4.282 0 2.899 2.899 0 0 0 0 4.175l18.596 18.125a3.058 3.058 0 0 0 2.14.864 3.06 3.06 0 0 0 2.142-.864z"/></g></g></svg>