<svg xmlns="http://www.w3.org/2000/svg" width="181" height="181" viewBox="0 0 181 181"><defs><mask id="7ua3b" width="2.08" height="2.08" x="-1.04" y="-1.04"><path fill="#fff" d="M27.5.5h126v126h-126z"/><path d="M68.598 5.688h43.338c12.567 0 17.124 1.506 21.718 4.335 4.594 2.83 8.2 6.982 10.657 12.272 2.457 5.29 3.766 10.538 3.766 25.008v32.39c0 14.47-1.309 19.718-3.766 25.008-2.457 5.29-6.063 9.442-10.657 12.271-4.594 2.83-9.151 4.337-21.718 4.337H68.598c-12.566 0-17.124-1.507-21.718-4.337-4.594-2.829-8.2-6.98-10.657-12.27-2.457-5.291-3.765-10.538-3.765-25.01V47.304c0-14.47 1.308-19.718 3.765-25.008 2.458-5.29 6.063-9.442 10.657-12.272 4.594-2.829 9.152-4.335 21.718-4.335z"/></mask><filter id="7ua3a" width="201" height="228" x="-10" y="-37" filterUnits="userSpaceOnUse"><feOffset dy="27" in="SourceGraphic" result="FeOffset1049Out"/><feGaussianBlur in="FeOffset1049Out" result="FeGaussianBlur1050Out" stdDeviation="11 11"/></filter></defs><g><g><g filter="url(#7ua3a)"><path fill="none" stroke="#939393" stroke-opacity=".14" stroke-width="9" d="M68.598 5.688h43.338c12.567 0 17.124 1.506 21.718 4.335 4.594 2.83 8.2 6.982 10.657 12.272 2.457 5.29 3.766 10.538 3.766 25.008v32.39c0 14.47-1.309 19.718-3.766 25.008-2.457 5.29-6.063 9.442-10.657 12.271-4.594 2.83-9.151 4.337-21.718 4.337H68.598c-12.566 0-17.124-1.507-21.718-4.337-4.594-2.829-8.2-6.98-10.657-12.27-2.457-5.291-3.765-10.538-3.765-25.01V47.304c0-14.47 1.308-19.718 3.765-25.008 2.458-5.29 6.063-9.442 10.657-12.272 4.594-2.829 9.152-4.335 21.718-4.335z" mask="url(&quot;#7ua3b&quot;)"/><path fill="#939393" fill-opacity=".14" d="M68.598 5.688h43.338c12.567 0 17.124 1.506 21.718 4.335 4.594 2.83 8.2 6.982 10.657 12.272 2.457 5.29 3.766 10.538 3.766 25.008v32.39c0 14.47-1.309 19.718-3.766 25.008-2.457 5.29-6.063 9.442-10.657 12.271-4.594 2.83-9.151 4.337-21.718 4.337H68.598c-12.566 0-17.124-1.507-21.718-4.337-4.594-2.829-8.2-6.98-10.657-12.27-2.457-5.291-3.765-10.538-3.765-25.01V47.304c0-14.47 1.308-19.718 3.765-25.008 2.458-5.29 6.063-9.442 10.657-12.272 4.594-2.829 9.152-4.335 21.718-4.335z"/></g><path fill="#fff" d="M68.598 5.688h43.338c12.567 0 17.124 1.506 21.718 4.335 4.594 2.83 8.2 6.982 10.657 12.272 2.457 5.29 3.766 10.538 3.766 25.008v32.39c0 14.47-1.309 19.718-3.766 25.008-2.457 5.29-6.063 9.442-10.657 12.271-4.594 2.83-9.151 4.337-21.718 4.337H68.598c-12.566 0-17.124-1.507-21.718-4.337-4.594-2.829-8.2-6.98-10.657-12.27-2.457-5.291-3.765-10.538-3.765-25.01V47.304c0-14.47 1.308-19.718 3.765-25.008 2.458-5.29 6.063-9.442 10.657-12.272 4.594-2.829 9.152-4.335 21.718-4.335z"/><path fill="none" d="M68.598 5.688h43.338c12.567 0 17.124 1.506 21.718 4.335 4.594 2.83 8.2 6.982 10.657 12.272 2.457 5.29 3.766 10.538 3.766 25.008v32.39c0 14.47-1.309 19.718-3.766 25.008-2.457 5.29-6.063 9.442-10.657 12.271-4.594 2.83-9.151 4.337-21.718 4.337H68.598c-12.566 0-17.124-1.507-21.718-4.337-4.594-2.829-8.2-6.98-10.657-12.27-2.457-5.291-3.765-10.538-3.765-25.01V47.304c0-14.47 1.308-19.718 3.765-25.008 2.458-5.29 6.063-9.442 10.657-12.272 4.594-2.829 9.152-4.335 21.718-4.335z"/></g><g><path fill="#b7b7b7" d="M115.641 67.36v-8.97H94.353v-22.8h-9.94v22.8H63.124v8.97h21.287v22.907h9.941V67.359z"/><path fill="none" d="M115.641 67.36v-8.97H94.353v-22.8h-9.94v22.8H63.124v8.97h21.287v22.907h9.941V67.359z"/></g></g></svg>