<svg width="60" height="60" viewBox="0 0 40 40" fill="none" xmlns="http://www.w3.org/2000/svg">
<path d="M12.8647 0.819214H27.3099C31.4987 0.819214 33.0176 1.32152 34.5489 2.26447C36.0801 3.20775 37.2821 4.59134 38.101 6.35491C38.92 8.11814 39.3563 9.86705 39.3563 14.6904V25.4865C39.3563 30.3096 38.92 32.0585 38.101 33.8221C37.2821 35.5853 36.0801 36.9692 34.5489 37.9122C33.0176 38.8554 31.4987 39.3574 27.3099 39.3574H12.8647C8.6763 39.3574 7.15705 38.8551 5.6258 37.9122C4.09455 36.9689 2.89262 35.5856 2.07367 33.8221C1.25471 32.0588 0.818735 30.3096 0.818735 25.4862V14.6901C0.818735 9.86705 1.25471 8.11814 2.07367 6.35491C2.89295 4.59167 4.09455 3.20742 5.6258 2.26447C7.15705 1.32119 8.6763 0.819214 12.8647 0.819214V0.819214Z" fill="#00E96B"/>
<path d="M29.3175 16.584L19.1631 26.6234C18.4111 27.3674 17.1912 27.3674 16.4385 26.6234L11.1968 21.4404C11.0182 21.2645 10.8763 21.0549 10.7795 20.8237C10.6827 20.5924 10.6328 20.3443 10.6328 20.0936C10.6328 19.8429 10.6827 19.5948 10.7795 19.3636C10.8763 19.1323 11.0182 18.9227 11.1968 18.7468C11.9491 18.0029 13.1687 18.0029 13.921 18.7465L17.8011 22.583L26.593 13.8901C27.3453 13.1465 28.5649 13.1468 29.3172 13.8901C29.4958 14.066 29.6377 14.2757 29.7345 14.507C29.8314 14.7383 29.8812 14.9865 29.8812 15.2372C29.8812 15.4879 29.8314 15.7362 29.7345 15.9674C29.6377 16.1987 29.4958 16.4084 29.3172 16.5843L29.3175 16.584Z" fill="white"/>
</svg>
