<svg xmlns="http://www.w3.org/2000/svg" width="181" height="180" viewBox="0 0 181 180"><defs><mask id="8ztob" width="2.08" height="2.08" x="-1.04" y="-1.04"><path fill="#fff" d="M27.5.5h126v125h-126z"/><path d="M68.598 5.094h43.338c12.567 0 17.124 1.507 21.718 4.337 4.594 2.829 8.2 6.98 10.657 12.27 2.457 5.29 3.766 10.538 3.766 25.009V79.1c0 14.47-1.309 19.718-3.766 25.008-2.457 5.29-6.063 9.442-10.657 12.271-4.594 2.83-9.151 4.336-21.718 4.336H68.598c-12.566 0-17.124-1.506-21.718-4.336-4.594-2.83-8.2-6.98-10.657-12.271-2.457-5.29-3.765-10.538-3.765-25.009V46.71c0-14.47 1.308-19.717 3.765-25.007 2.458-5.29 6.063-9.442 10.657-12.271 4.594-2.83 9.152-4.337 21.718-4.337z"/></mask><filter id="8ztoa" width="201" height="227" x="-10" y="-37" filterUnits="userSpaceOnUse"><feOffset dy="27" in="SourceGraphic" result="FeOffset1023Out"/><feGaussianBlur in="FeOffset1023Out" result="FeGaussianBlur1024Out" stdDeviation="11 11"/></filter></defs><g><g><g filter="url(#8ztoa)"><path fill="none" stroke="#939393" stroke-opacity=".14" stroke-width="9" d="M68.598 5.094h43.338c12.567 0 17.124 1.507 21.718 4.337 4.594 2.829 8.2 6.98 10.657 12.27 2.457 5.29 3.766 10.538 3.766 25.009V79.1c0 14.47-1.309 19.718-3.766 25.008-2.457 5.29-6.063 9.442-10.657 12.271-4.594 2.83-9.151 4.336-21.718 4.336H68.598c-12.566 0-17.124-1.506-21.718-4.336-4.594-2.83-8.2-6.98-10.657-12.271-2.457-5.29-3.765-10.538-3.765-25.009V46.71c0-14.47 1.308-19.717 3.765-25.007 2.458-5.29 6.063-9.442 10.657-12.271 4.594-2.83 9.152-4.337 21.718-4.337z" mask="url(&quot;#8ztob&quot;)"/><path fill="#939393" fill-opacity=".14" d="M68.598 5.094h43.338c12.567 0 17.124 1.507 21.718 4.337 4.594 2.829 8.2 6.98 10.657 12.27 2.457 5.29 3.766 10.538 3.766 25.009V79.1c0 14.47-1.309 19.718-3.766 25.008-2.457 5.29-6.063 9.442-10.657 12.271-4.594 2.83-9.151 4.336-21.718 4.336H68.598c-12.566 0-17.124-1.506-21.718-4.336-4.594-2.83-8.2-6.98-10.657-12.271-2.457-5.29-3.765-10.538-3.765-25.009V46.71c0-14.47 1.308-19.717 3.765-25.007 2.458-5.29 6.063-9.442 10.657-12.271 4.594-2.83 9.152-4.337 21.718-4.337z"/></g><path fill="#00e96b" d="M68.598 5.094h43.338c12.567 0 17.124 1.507 21.718 4.337 4.594 2.829 8.2 6.98 10.657 12.27 2.457 5.29 3.766 10.538 3.766 25.009V79.1c0 14.47-1.309 19.718-3.766 25.008-2.457 5.29-6.063 9.442-10.657 12.271-4.594 2.83-9.151 4.336-21.718 4.336H68.598c-12.566 0-17.124-1.506-21.718-4.336-4.594-2.83-8.2-6.98-10.657-12.271-2.457-5.29-3.765-10.538-3.765-25.009V46.71c0-14.47 1.308-19.717 3.765-25.007 2.458-5.29 6.063-9.442 10.657-12.271 4.594-2.83 9.152-4.337 21.718-4.337z"/><path fill="none" d="M68.598 5.094h43.338c12.567 0 17.124 1.507 21.718 4.337 4.594 2.829 8.2 6.98 10.657 12.27 2.457 5.29 3.766 10.538 3.766 25.009V79.1c0 14.47-1.309 19.718-3.766 25.008-2.457 5.29-6.063 9.442-10.657 12.271-4.594 2.83-9.151 4.336-21.718 4.336H68.598c-12.566 0-17.124-1.506-21.718-4.336-4.594-2.83-8.2-6.98-10.657-12.271-2.457-5.29-3.765-10.538-3.765-25.009V46.71c0-14.47 1.308-19.717 3.765-25.007 2.458-5.29 6.063-9.442 10.657-12.271 4.594-2.83 9.152-4.337 21.718-4.337z"/></g><g><path fill="#fff" d="M117.959 52.392l-30.465 30.12c-2.256 2.23-5.916 2.23-8.174 0l-15.726-15.55a5.67 5.67 0 0 1 0-8.082c2.257-2.232 5.916-2.232 8.173 0l11.641 11.51 26.377-26.08c2.257-2.232 5.916-2.23 8.173 0a5.672 5.672 0 0 1 0 8.082z"/></g></g></svg>