<svg width="60" height="60" viewBox="0 0 40 40" fill="none" xmlns="http://www.w3.org/2000/svg">
<path d="M12.8647 0.895874H27.3099C31.4987 0.895874 33.0176 1.39785 34.5489 2.34079C36.0801 3.28408 37.2821 4.668 38.101 6.43124C38.92 8.19447 39.3563 9.94371 39.3563 14.7668V25.5628C39.3563 30.3859 38.92 32.1351 38.101 33.8984C37.2821 35.6616 36.0801 37.0455 34.5489 37.9885C33.0176 38.9318 31.4987 39.4341 27.3099 39.4341H12.8647C8.6763 39.4341 7.15705 38.9318 5.6258 37.9885C4.09455 37.0455 2.89262 35.662 2.07366 33.8987C1.25471 32.1351 0.818733 30.3862 0.818733 25.5625V14.7671C0.818733 9.94404 1.25471 8.1948 2.07366 6.43157C2.89295 4.66833 4.09455 3.28441 5.6258 2.34113C7.15705 1.39818 8.6763 0.896207 12.8647 0.896207V0.895874Z" fill="white"/>
<path d="M28.5449 21.4521V18.4623H21.4493V10.8627H18.1361V18.4623H11.0402V21.4521H18.1354V29.0873H21.4489V21.4518L28.5449 21.4521Z" fill="#B7B7B7"/>
</svg>
