<svg xmlns="http://www.w3.org/2000/svg" width="23" height="20" viewBox="0 0 46 40"><defs><clipPath id="4qiua"><path fill="#fff" d="M0 40V0h46v40zM32.1 2.254c-3.706 0-6.982 1.837-9.009 4.65-2.027-2.813-5.303-4.65-9.01-4.65-6.155 0-11.146 3.52-11.146 11.263 0 10.773 20.156 23.935 20.156 23.935s20.157-13.655 20.157-23.935c0-6.22-4.991-11.263-11.147-11.263z"/></clipPath></defs><g><g><path fill="#fff" d="M32.1 2.254c6.156 0 11.148 5.044 11.148 11.263 0 10.28-20.157 23.935-20.157 23.935S2.935 24.29 2.935 13.517c0-7.743 4.991-11.263 11.146-11.263 3.707 0 6.983 1.837 9.01 4.65 2.027-2.813 5.303-4.65 9.01-4.65z"/><path fill="none" stroke="#ffca00" stroke-linecap="round" stroke-linejoin="round" stroke-miterlimit="20" stroke-width="4" d="M32.1 2.254c6.156 0 11.148 5.044 11.148 11.263 0 10.28-20.157 23.935-20.157 23.935v0S2.935 24.29 2.935 13.517c0-7.743 4.991-11.263 11.146-11.263 3.707 0 6.983 1.837 9.01 4.65 2.027-2.813 5.303-4.65 9.01-4.65z" clip-path="url(&quot;#4qiua&quot;)"/><path fill="none" d="M32.1 2.254c6.156 0 11.148 5.044 11.148 11.263 0 10.28-20.157 23.935-20.157 23.935S2.935 24.29 2.935 13.517c0-7.743 4.991-11.263 11.146-11.263 3.707 0 6.983 1.837 9.01 4.65 2.027-2.813 5.303-4.65 9.01-4.65z"/></g></g></svg>
