<?xml version="1.0" encoding="utf-8"?>
<!-- Generator: Adobe Illustrator 25.0.0, SVG Export Plug-In . SVG Version: 6.00 Build 0)  -->
<svg version="1.1" id="Layer_1" xmlns="http://www.w3.org/2000/svg" xmlns:xlink="http://www.w3.org/1999/xlink" x="0px" y="0px"
	 viewBox="0 0 54 55" style="enable-background:new 0 0 54 55;" xml:space="preserve">
<style type="text/css">
	.st0{fill-rule:evenodd;clip-rule:evenodd;fill:#FFCA00;}
	.st1{fill-rule:evenodd;clip-rule:evenodd;fill:#FFFFFF;}
</style>
<path class="st0" d="M27.2,0.7C12.3,0.9,0.5,13.1,0.7,27.9c0.2,14.6,11.9,26.3,26.5,26.5C42,54.2,53.8,42.1,53.7,27.2
	C53.5,12.7,41.7,0.9,27.2,0.7z"/>
<path id="Shape_1_copy" class="st1" d="M38.8,40.5c-0.8,0.9-2.2,0.9-3.1,0c0,0,0,0,0,0l-11-11.2c-0.4-0.4-0.6-1-0.6-1.6V13.2
	c0-1.2,0.9-2.2,2.2-2.3c1.2,0,2.2,0.9,2.3,2.2c0,0,0,0.1,0,0.1v13.6l10.4,10.5C39.6,38.2,39.6,39.6,38.8,40.5z"/>
</svg>
