<svg xmlns="http://www.w3.org/2000/svg" width="62.67" height="36.33" viewBox="0 0 188 109"><g><g><path fill="#ececec" d="M94.076 42.27v51.46c0 8.399-6.861 15.27-15.247 15.27H15.247C6.861 109 0 102.129 0 93.73V42.27C0 33.87 6.86 27 15.247 27H78.83a15.206 15.206 0 0 1 15.247 15.27zM134 44.255V91.44c0 1.68-.457 3.207-1.22 4.582-2.592 4.428-8.081 5.955-12.503 3.359l-8.569-4.92A30.628 30.628 0 0 1 96.34 67.895a30.629 30.629 0 0 1 15.296-26.522l8.49-4.905c.762-.459 1.677-.917 2.592-1.07C128.664 34.024 134 38.605 134 44.255z"/></g><g><g><text dominant-baseline="text-before-edge" style="line-height:70px" fill="#ececec" font-family="'CeraPro','CeraPro-Medium'" font-size="100" transform="translate(142)"><tspan style="font-kerning:normal" letter-spacing="-3">+</tspan></text></g></g></g></svg>