<svg xmlns="http://www.w3.org/2000/svg" width="35.33" height="35.67" viewBox="0 0 106 107"><g><g><path fill="#343e97" d="M28.879.85h48.974c9.72 0 13.244 1.17 16.797 3.365 3.554 2.195 6.343 5.418 8.243 9.526 1.9 4.102 2.912 8.178 2.912 19.405v40.65c0 11.23-1.012 15.302-2.912 19.407-1.9 4.109-4.69 7.328-8.243 9.526-3.553 2.195-7.077 3.365-16.797 3.365H28.88c-9.72 0-13.244-1.17-16.797-3.365-3.554-2.198-6.343-5.417-8.243-9.526C1.94 89.098.927 85.026.927 73.795V33.146c0-11.227 1.012-15.303 2.912-19.405 1.9-4.108 4.69-7.33 8.243-9.526C15.635 2.021 19.16.851 28.879.851z"/><path fill="none" d="M28.879.85h48.974c9.72 0 13.244 1.17 16.797 3.365 3.554 2.195 6.343 5.418 8.243 9.526 1.9 4.102 2.912 8.178 2.912 19.405v40.65c0 11.23-1.012 15.302-2.912 19.407-1.9 4.109-4.69 7.328-8.243 9.526-3.553 2.195-7.077 3.365-16.797 3.365H28.88c-9.72 0-13.244-1.17-16.797-3.365-3.554-2.198-6.343-5.417-8.243-9.526C1.94 89.098.927 85.026.927 73.795V33.146c0-11.227 1.012-15.303 2.912-19.405 1.9-4.108 4.69-7.33 8.243-9.526C15.635 2.021 19.16.851 28.879.851z"/></g><g><path fill="#fff" d="M58.117 105.556V75.478h13.875l2.081-16.174H58.117V48.977c0-4.68 1.29-7.871 7.989-7.871l8.53-.004V26.637c-1.476-.194-6.539-.632-12.432-.632-12.306 0-20.731 7.534-20.731 21.37v11.93H27.557v16.173h13.916v30.078z"/></g></g></svg>