<svg xmlns="http://www.w3.org/2000/svg" width="34.33" height="34.33" viewBox="0 0 103 103"><g><g><path fill="#fff" d="M102.768 51.27c0 13.915-.06 15.656-.3 21.122-.238 5.445-1.117 9.17-2.373 12.432A26.17 26.17 0 0 1 85.149 99.82c-3.233 1.261-6.965 2.142-12.392 2.382-5.447.241-7.184.3-21.053.3-13.868 0-15.605-.059-21.051-.3-5.428-.24-9.14-1.12-12.393-2.382a25.133 25.133 0 0 1-9.039-5.906 25.274 25.274 0 0 1-5.906-9.089C2.058 81.581 1.179 77.837.94 72.392c-.24-5.466-.3-7.207-.3-21.121 0-13.914.06-15.655.32-21.141.24-5.446 1.117-9.168 2.374-12.432A25.232 25.232 0 0 1 9.221 8.63a24.906 24.906 0 0 1 9.06-5.926C21.513 1.443 25.245.56 30.672.32c5.448-.24 7.184-.3 21.053-.3 13.868 0 15.604.06 21.072.321 5.427.24 9.139 1.12 12.391 2.382a25.127 25.127 0 0 1 9.04 5.906 25.005 25.005 0 0 1 5.906 9.088c1.257 3.245 2.136 6.988 2.374 12.433.24 5.466.26 7.207.26 21.12zm-9.158.04c0-13.673-.06-15.294-.3-20.7-.22-4.984-1.058-7.707-1.756-9.509a15.936 15.936 0 0 0-3.811-5.886 15.713 15.713 0 0 0-5.867-3.823c-1.796-.701-4.49-1.542-9.478-1.762-5.369-.24-6.984-.3-20.634-.3-13.628 0-15.244.06-20.633.3-4.968.22-7.682 1.06-9.478 1.762a15.858 15.858 0 0 0-5.866 3.823 15.575 15.575 0 0 0-3.832 5.886c-.699 1.802-1.536 4.505-1.756 9.51-.24 5.385-.3 7.026-.3 20.7s.06 15.296.3 20.7c.22 4.986 1.057 7.708 1.756 9.51a15.924 15.924 0 0 0 3.812 5.885 15.717 15.717 0 0 0 5.865 3.825c1.797.7 4.49 1.541 9.479 1.761 5.368.241 7.005.3 20.634.3 13.63 0 15.245-.059 20.632-.3 4.97-.22 7.683-1.06 9.479-1.761a16.97 16.97 0 0 0 9.698-9.73c.698-1.802 1.537-4.504 1.756-9.51.24-5.405.3-7.006.3-20.68zm-15.645-.04c0 14.535-11.753 26.327-26.24 26.327-14.488 0-26.241-11.792-26.241-26.326 0-14.535 11.753-26.326 26.24-26.326 14.488 0 26.24 11.791 26.24 26.326zm-9.219 0c0-9.428-7.623-17.076-17.021-17.076-9.399 0-17.022 7.648-17.022 17.077 0 9.43 7.623 17.077 17.022 17.077 9.398 0 17.021-7.647 17.021-17.077zM85.13 23.905c0 3.394-2.743 6.146-6.127 6.146-3.383 0-6.126-2.752-6.126-6.146 0-3.395 2.743-6.146 6.126-6.146 3.384 0 6.127 2.751 6.127 6.146z"/></g></g></svg>