<svg xmlns="http://www.w3.org/2000/svg" width="35.33" height="35.67" viewBox="0 0 106 107"><defs><linearGradient id="6skxa" x1=".18" x2="105.18" y1="106.09" y2=".85" gradientUnits="userSpaceOnUse"><stop offset="0" stop-color="#ffcb00"/><stop offset=".23" stop-color="#ff9000"/><stop offset=".76" stop-color="#ff008b"/><stop offset="1" stop-color="#d200dd"/></linearGradient></defs><g><g><path fill="red" d="M28.127.85h48.975c9.72 0 13.244 1.17 16.797 3.365 3.554 2.195 6.342 5.418 8.242 9.526 1.9 4.102 2.913 8.178 2.913 19.405v40.65c0 11.23-1.013 15.302-2.913 19.407-1.9 4.109-4.688 7.328-8.242 9.526-3.553 2.195-7.077 3.365-16.797 3.365H28.127c-9.719 0-13.243-1.17-16.797-3.365-3.553-2.198-6.341-5.417-8.242-9.526-1.9-4.105-2.913-8.177-2.913-19.408V33.146c0-11.227 1.012-15.303 2.913-19.405 1.9-4.108 4.689-7.33 8.242-9.526C14.884 2.021 18.408.851 28.127.851z"/><path fill="url(#6skxa)" d="M28.127.85h48.975c9.72 0 13.244 1.17 16.797 3.365 3.554 2.195 6.342 5.418 8.242 9.526 1.9 4.102 2.913 8.178 2.913 19.405v40.65c0 11.23-1.013 15.302-2.913 19.407-1.9 4.109-4.688 7.328-8.242 9.526-3.553 2.195-7.077 3.365-16.797 3.365H28.127c-9.719 0-13.243-1.17-16.797-3.365-3.553-2.198-6.341-5.417-8.242-9.526-1.9-4.105-2.913-8.177-2.913-19.408V33.146c0-11.227 1.012-15.303 2.913-19.405 1.9-4.108 4.689-7.33 8.242-9.526C14.884 2.021 18.408.851 28.127.851z"/><path fill="none" d="M28.127.85h48.975c9.72 0 13.244 1.17 16.797 3.365 3.554 2.195 6.342 5.418 8.242 9.526 1.9 4.102 2.913 8.178 2.913 19.405v40.65c0 11.23-1.013 15.302-2.913 19.407-1.9 4.109-4.688 7.328-8.242 9.526-3.553 2.195-7.077 3.365-16.797 3.365H28.127c-9.719 0-13.243-1.17-16.797-3.365-3.553-2.198-6.341-5.417-8.242-9.526-1.9-4.105-2.913-8.177-2.913-19.408V33.146c0-11.227 1.012-15.303 2.913-19.405 1.9-4.108 4.689-7.33 8.242-9.526C14.884 2.021 18.408.851 28.127.851z"/></g><g><path fill="#fff" d="M90.137 51.369c0 10.221-.044 11.5-.22 15.516-.176 4-.821 6.736-1.744 9.133a19.225 19.225 0 0 1-10.98 11.015c-2.375.927-5.116 1.574-9.103 1.75-4.002.177-5.278.22-15.465.22-10.188 0-11.464-.043-15.465-.22-3.988-.176-6.714-.823-9.103-1.75a18.462 18.462 0 0 1-6.641-4.338 18.578 18.578 0 0 1-4.339-6.677c-.924-2.383-1.569-5.133-1.745-9.133-.175-4.015-.22-5.295-.22-15.516 0-10.22.045-11.5.235-15.53.176-4 .821-6.736 1.744-9.133.94-2.5 2.42-4.78 4.325-6.662a18.303 18.303 0 0 1 6.656-4.354c2.374-.926 5.115-1.573 9.102-1.75 4.002-.176 5.277-.22 15.465-.22 10.188 0 11.463.044 15.48.235 3.987.177 6.714.824 9.103 1.75a18.46 18.46 0 0 1 6.64 4.339 18.373 18.373 0 0 1 4.34 6.676c.924 2.383 1.569 5.134 1.744 9.133.176 4.015.191 5.295.191 15.516zm-6.728.03c0-10.045-.044-11.236-.22-15.207-.162-3.662-.778-5.662-1.29-6.986a11.716 11.716 0 0 0-2.8-4.324 11.534 11.534 0 0 0-4.31-2.809c-1.32-.514-3.298-1.132-6.963-1.294-3.943-.176-5.13-.22-15.158-.22-10.011 0-11.199.044-15.157.22-3.65.162-5.644.78-6.962 1.294a11.643 11.643 0 0 0-4.31 2.809 11.443 11.443 0 0 0-2.815 4.324c-.514 1.324-1.128 3.31-1.29 6.986-.176 3.956-.22 5.162-.22 15.207 0 10.044.044 11.236.22 15.206.162 3.662.776 5.663 1.29 6.986a11.697 11.697 0 0 0 2.8 4.324 11.538 11.538 0 0 0 4.31 2.81c1.318.514 3.298 1.132 6.962 1.293 3.944.177 5.146.22 15.158.22s11.199-.043 15.157-.22c3.65-.161 5.644-.779 6.963-1.294a12.471 12.471 0 0 0 7.125-7.148c.512-1.323 1.128-3.309 1.29-6.985.176-3.971.22-5.148.22-15.192zm-11.493-.03c0 10.677-8.634 19.34-19.277 19.34-10.642 0-19.276-8.663-19.276-19.34s8.634-19.34 19.276-19.34c10.643 0 19.277 8.663 19.277 19.34zm-6.773 0c0-6.927-5.6-12.545-12.504-12.545S40.135 44.442 40.135 51.37c0 6.928 5.6 12.545 12.504 12.545s12.504-5.617 12.504-12.545zm12.035-20.104a4.507 4.507 0 0 1-4.5 4.515 4.508 4.508 0 0 1-4.5-4.515 4.508 4.508 0 0 1 4.5-4.515c2.485 0 4.5 2.021 4.5 4.515z"/></g></g></svg>