<svg xmlns="http://www.w3.org/2000/svg" width="28.67" height="23.33" viewBox="0 0 86 70"><g><g><path fill="#fff" d="M85.572 8.613a36.381 36.381 0 0 1-10.078 2.77 17.44 17.44 0 0 0 7.695-9.7C79.81 3.708 76.076 5.136 72.1 5.93A17.503 17.503 0 0 0 59.321.379c-9.683 0-17.48 7.885-17.48 17.555 0 1.391.118 2.724.406 4-14.542-.712-27.41-7.703-36.052-18.358-1.51 2.63-2.395 5.638-2.395 8.873a17.59 17.59 0 0 0 7.77 14.584c-2.81-.05-5.567-.872-7.903-2.16v.193c0 8.53 6.063 15.613 14.014 17.243-1.424.395-2.976.58-4.586.58-1.12 0-2.25-.066-3.312-.3 2.266 6.95 8.697 12.061 16.344 12.226a35.07 35.07 0 0 1-21.686 7.486c-1.434 0-2.81-.062-4.186-.239 7.748 5.012 16.93 7.876 26.832 7.876 32.185 0 49.782-26.753 49.782-49.946 0-.774-.027-1.523-.064-2.268 3.471-2.473 6.389-5.56 8.766-9.11z"/></g></g></svg>