<svg xmlns="http://www.w3.org/2000/svg" width="35.33" height="35.67" viewBox="0 0 106 107"><g><g><path fill="#00aefe" d="M28.432.85h48.975c9.72 0 13.243 1.17 16.797 3.365 3.553 2.195 6.341 5.418 8.241 9.526 1.901 4.102 2.914 8.178 2.914 19.405v40.65c0 11.23-1.013 15.302-2.914 19.407-1.9 4.109-4.688 7.328-8.241 9.526-3.554 2.195-7.077 3.365-16.797 3.365H28.432c-9.72 0-13.244-1.17-16.797-3.365-3.554-2.198-6.343-5.417-8.243-9.526C1.492 89.098.48 85.026.48 73.795V33.146c0-11.227 1.012-15.303 2.912-19.405 1.9-4.108 4.69-7.33 8.243-9.526C15.188 2.021 18.713.851 28.432.851z"/><path fill="none" d="M28.432.85h48.975c9.72 0 13.243 1.17 16.797 3.365 3.553 2.195 6.341 5.418 8.241 9.526 1.901 4.102 2.914 8.178 2.914 19.405v40.65c0 11.23-1.013 15.302-2.914 19.407-1.9 4.109-4.688 7.328-8.241 9.526-3.554 2.195-7.077 3.365-16.797 3.365H28.432c-9.72 0-13.244-1.17-16.797-3.365-3.554-2.198-6.343-5.417-8.243-9.526C1.492 89.098.48 85.026.48 73.795V33.146c0-11.227 1.012-15.303 2.912-19.405 1.9-4.108 4.69-7.33 8.243-9.526C15.188 2.021 18.713.851 28.432.851z"/></g><g><path fill="#fff" d="M85.009 34.724a26.712 26.712 0 0 1-7.404 2.035 12.807 12.807 0 0 0 5.653-7.125 25.537 25.537 0 0 1-8.148 3.12 12.858 12.858 0 0 0-9.386-4.079c-7.113 0-12.84 5.792-12.84 12.897 0 1.022.087 2.001.298 2.938-10.682-.523-20.135-5.659-26.484-13.486-1.11 1.932-1.76 4.142-1.76 6.518a12.92 12.92 0 0 0 5.708 10.714c-2.064-.036-4.089-.641-5.805-1.587v.142c0 6.267 4.454 11.47 10.294 12.667-1.045.29-2.185.426-3.368.426-.823 0-1.654-.049-2.433-.22 1.665 5.105 6.389 8.86 12.006 8.98a25.762 25.762 0 0 1-15.93 5.5c-1.054 0-2.066-.045-3.076-.175 5.692 3.682 12.437 5.786 19.711 5.786 23.644 0 36.571-19.653 36.571-36.692 0-.568-.02-1.118-.046-1.665 2.549-1.817 4.692-4.085 6.439-6.694z"/></g></g></svg>