<svg xmlns="http://www.w3.org/2000/svg" width="58" height="37.33" viewBox="0 0 174 112"><g><g><path fill="#ececec" d="M115.991 49.071v49.033c0 7.71-6.177 13.901-13.868 13.901H13.876c-7.69 0-13.867-6.192-13.867-13.9V49.07c0-7.709 6.177-13.9 13.867-13.9h12.103l6.681-10.11c2.521-3.792 6.934-6.067 11.472-6.067h27.735c4.539 0 8.951 2.275 11.473 6.066l6.682 10.11h12.101c7.69 0 13.868 6.192 13.868 13.901zM85.126 69.41c0-15.022-12.141-27.192-27.126-27.192-14.985 0-27.125 12.06-27.125 27.082 0 15.021 12.14 27.192 27.125 27.192s27.126-12.17 27.126-27.082zm19.015-18.948c-.126-2.275-2.018-4.045-4.287-3.918h-5.042c-2.143.126-3.783 1.77-3.909 3.918-.126 2.274 1.64 4.17 3.909 4.296h5.547c2.27-.126 3.908-2.022 3.782-4.297z"/><path fill="none" d="M115.991 49.071v49.033c0 7.71-6.177 13.901-13.868 13.901H13.876c-7.69 0-13.867-6.192-13.867-13.9V49.07c0-7.709 6.177-13.9 13.867-13.9h12.103l6.681-10.11c2.521-3.792 6.934-6.067 11.472-6.067h27.735c4.539 0 8.951 2.275 11.473 6.066l6.682 10.11h12.101c7.69 0 13.868 6.192 13.868 13.901zM85.126 69.41c0-15.022-12.141-27.192-27.126-27.192-14.985 0-27.125 12.06-27.125 27.082 0 15.021 12.14 27.192 27.125 27.192s27.126-12.17 27.126-27.082zm19.015-18.948c-.126-2.275-2.018-4.045-4.287-3.918h-5.042c-2.143.126-3.783 1.77-3.909 3.918-.126 2.274 1.64 4.17 3.909 4.296h5.547c2.27-.126 3.908-2.022 3.782-4.297z"/></g><g><g><text dominant-baseline="text-before-edge" style="line-height:70px" fill="#ececec" font-family="'CeraPro','CeraPro-Medium'" font-size="100" transform="translate(128)"><tspan style="font-kerning:normal" letter-spacing="-3">+</tspan></text></g></g></g></svg>