<svg xmlns="http://www.w3.org/2000/svg" width="73" height="35" viewBox="0 0 219 105"><g><g><path fill="#ececec" d="M111.27 22.24h34.33c4.503 0 8.405 3.609 8.405 8.42 0 4.812-3.602 8.42-8.405 8.42h-34.33c-4.503 0-8.405-3.608-8.405-8.42 0-4.811 3.902-8.42 8.404-8.42zM85.831 61.997c0 23.759-18.909 43.005-42.62 43.005-23.711.301-43.22-18.946-43.22-42.704-.3-23.757 18.908-43.305 42.62-43.305 23.71-.301 42.92 18.946 43.22 42.704zm61.76 8.04H111.27c-4.502 0-8.404-3.608-8.404-8.42 0-4.812 3.602-8.42 8.404-8.42h36.323c4.501 0 8.404 3.608 8.404 8.42 0 4.812-3.903 8.42-8.404 8.42zm0 29.453H111.27c-4.502 0-8.404-3.608-8.404-8.42 0-4.812 3.602-8.42 8.404-8.42h36.323c4.501 0 8.404 3.608 8.404 8.42 0 4.812-3.903 8.42-8.404 8.42z"/></g><g><g><text dominant-baseline="text-before-edge" style="line-height:70px" fill="#fff" font-family="'CeraPro','CeraPro-Medium'" font-size="65" transform="translate(29 40)"><tspan style="font-kerning:normal" letter-spacing="-1.95">1</tspan></text></g></g><g><g><text dominant-baseline="text-before-edge" style="line-height:70px" fill="#ececec" font-family="'CeraPro','CeraPro-Medium'" font-size="100" transform="translate(173)"><tspan style="font-kerning:normal" letter-spacing="-3">+</tspan></text></g></g></g></svg>